<?xml version="1.0" standalone="no"?><svg xmlns="http://www.w3.org/2000/svg" viewBox="0 0 1440 320"><path fill="#0099ff" fill-opacity="1" d="M0,288L26.7,272C53.3,256,107,224,160,208C213.3,192,267,192,320,208C373.3,224,427,256,480,256C533.3,256,587,224,640,202.7C693.3,181,747,171,800,154.7C853.3,139,907,117,960,133.3C1013.3,149,1067,203,1120,234.7C1173.3,267,1227,277,1280,256C1333.3,235,1387,181,1413,154.7L1440,128L1440,0L1413.3,0C1386.7,0,1333,0,1280,0C1226.7,0,1173,0,1120,0C1066.7,0,1013,0,960,0C906.7,0,853,0,800,0C746.7,0,693,0,640,0C586.7,0,533,0,480,0C426.7,0,373,0,320,0C266.7,0,213,0,160,0C106.7,0,53,0,27,0L0,0Z"></path></svg>