<?xml version="1.0" standalone="no"?><svg xmlns="http://www.w3.org/2000/svg" viewBox="0 0 1440 320"><path fill="#0099ff" fill-opacity="1" d="M0,288L26.7,288C53.3,288,107,288,160,261.3C213.3,235,267,181,320,149.3C373.3,117,427,107,480,90.7C533.3,75,587,53,640,85.3C693.3,117,747,203,800,229.3C853.3,256,907,224,960,229.3C1013.3,235,1067,277,1120,250.7C1173.3,224,1227,128,1280,85.3C1333.3,43,1387,53,1413,58.7L1440,64L1440,320L1413.3,320C1386.7,320,1333,320,1280,320C1226.7,320,1173,320,1120,320C1066.7,320,1013,320,960,320C906.7,320,853,320,800,320C746.7,320,693,320,640,320C586.7,320,533,320,480,320C426.7,320,373,320,320,320C266.7,320,213,320,160,320C106.7,320,53,320,27,320L0,320Z"></path></svg>