<?xml version="1.0" standalone="no"?><svg xmlns="http://www.w3.org/2000/svg" viewBox="0 0 1440 320"><path fill="#063971" fill-opacity="1" d="M0,128L34.3,154.7C68.6,181,137,235,206,240C274.3,245,343,203,411,165.3C480,128,549,96,617,90.7C685.7,85,754,107,823,128C891.4,149,960,171,1029,186.7C1097.1,203,1166,213,1234,197.3C1302.9,181,1371,139,1406,117.3L1440,96L1440,320L1405.7,320C1371.4,320,1303,320,1234,320C1165.7,320,1097,320,1029,320C960,320,891,320,823,320C754.3,320,686,320,617,320C548.6,320,480,320,411,320C342.9,320,274,320,206,320C137.1,320,69,320,34,320L0,320Z"></path></svg>